<svg width="17" height="16" viewBox="0 0 17 16" fill="none" xmlns="http://www.w3.org/2000/svg">
<path d="M7.5695 0.346793C7.71834 -0.1156 8.37255 -0.115601 8.5214 0.346792L10.0751 5.17372C10.1417 5.3804 10.334 5.52052 10.5511 5.52052H15.589C16.0723 5.52052 16.2744 6.13794 15.8847 6.42371L11.8009 9.41867C11.6273 9.54599 11.5547 9.77013 11.6207 9.97507L13.1786 14.8151C13.3272 15.2766 12.7979 15.6582 12.407 15.3715L8.34114 12.3897C8.16514 12.2606 7.92575 12.2606 7.74975 12.3897L3.6839 15.3715C3.29296 15.6582 2.76371 15.2766 2.91226 14.8151L4.47022 9.97507C4.53619 9.77013 4.46357 9.54599 4.28997 9.41867L0.206168 6.42371C-0.183502 6.13794 0.0186335 5.52052 0.501861 5.52052H5.53979C5.75691 5.52052 5.94922 5.3804 6.01574 5.17372L7.5695 0.346793Z" fill="#FCC400"/>
</svg>
