<svg width="14" height="14" viewBox="0 0 14 14" fill="none" xmlns="http://www.w3.org/2000/svg">
<path d="M6.46898 0.343494C6.61993 -0.114473 7.26776 -0.114473 7.41872 0.343494L8.71918 4.28885C8.78674 4.49383 8.97821 4.63232 9.19405 4.63232H13.387C13.8731 4.63232 14.0733 5.25579 13.6781 5.53882L10.2984 7.95935C10.1206 8.08667 10.0462 8.31472 10.1146 8.52238L11.4085 12.4477C11.5599 12.9071 11.0357 13.2924 10.6425 13.0107L7.23498 10.5703C7.06091 10.4457 6.82679 10.4457 6.65272 10.5703L3.24521 13.0107C2.85196 13.2924 2.32779 12.9071 2.47921 12.4477L3.77307 8.52238C3.84152 8.31472 3.7671 8.08667 3.58933 7.95935L0.209582 5.53882C-0.185617 5.25579 0.014613 4.63232 0.500711 4.63232H4.69365C4.90948 4.63232 5.10095 4.49383 5.16852 4.28885L6.46898 0.343494Z" fill="#FCC400"/>
</svg>
