<svg width="14" height="18" viewBox="0 0 14 18" fill="none" xmlns="http://www.w3.org/2000/svg">
<path d="M13.823 15.4896L10.9494 11.3435C12.393 10.1574 13.3191 8.39356 13.3191 6.42695C13.3191 2.88909 10.3366 0 6.65953 0C2.98249 0 0 2.88909 0 6.43709C0 9.98509 2.98249 12.8742 6.65953 12.8742C7.57198 12.8742 8.44358 12.6917 9.24708 12.3673L12.1751 16.5844C12.3658 16.8581 12.679 17.0101 13.0058 17.0101C13.1965 17.0101 13.4008 16.9595 13.5642 16.8378C14.0136 16.5337 14.1362 15.9356 13.823 15.4997V15.4896ZM2.00195 6.43709C2.00195 3.95349 4.0856 1.92606 6.65953 1.92606C9.23346 1.92606 11.3171 3.94335 11.3171 6.42695C11.3171 8.91055 9.21984 10.9278 6.65953 10.9278C4.09922 10.9278 2.00195 8.91055 2.00195 6.42695V6.43709Z" fill="#4D4D4D"/>
</svg>
