<svg width="33" height="33" viewBox="0 0 33 33" fill="none" xmlns="http://www.w3.org/2000/svg">
<g clip-path="url(#clip0_357_1500)">
<path d="M16.15 32.3C7.25 32.3 0 25.06 0 16.15C0 7.24 7.25 0 16.15 0C25.05 0 32.3 7.24 32.3 16.15C32.3 25.06 25.05 32.3 16.15 32.3ZM16.15 1.3C7.96 1.3 1.3 7.96 1.3 16.15C1.3 24.34 7.96 31 16.15 31C24.34 31 31 24.34 31 16.15C31 7.96 24.34 1.3 16.15 1.3Z" fill="#1C1C1C"/>
<g style="mix-blend-mode:multiply">
<path d="M21.9191 9.39003C21.3291 8.68003 18.9691 8.15002 16.1491 8.15002C13.3291 8.15002 10.9691 8.68003 10.3791 9.39003C10.0191 9.70003 9.78906 10.17 9.78906 10.68V20.15C9.78906 21.1 10.5591 21.87 11.5091 21.87H11.6591V22.99C11.6591 23.63 12.1791 24.15 12.8191 24.15C13.4591 24.15 13.9791 23.63 13.9791 22.99V21.87H18.3091V22.99C18.3091 23.63 18.8291 24.15 19.4691 24.15C20.1091 24.15 20.6291 23.63 20.6291 22.99V21.87H20.7791C21.7291 21.87 22.4991 21.1 22.4991 20.15V10.68C22.4991 10.16 22.2691 9.70003 21.9091 9.39003H21.9191ZM11.2591 17.93C11.2591 17.37 11.7091 16.92 12.2691 16.92C12.8291 16.92 13.2791 17.37 13.2791 17.93C13.2791 18.49 12.8291 18.94 12.2691 18.94C11.7091 18.94 11.2591 18.49 11.2591 17.93ZM20.0391 18.94C19.4791 18.94 19.0291 18.49 19.0291 17.93C19.0291 17.37 19.4791 16.92 20.0391 16.92C20.5991 16.92 21.0491 17.37 21.0491 17.93C21.0491 18.49 20.5991 18.94 20.0391 18.94ZM21.1991 14.59C21.1991 15.06 20.8191 15.45 20.3391 15.45H11.9591C11.4891 15.45 11.0991 15.07 11.0991 14.59V11.24C11.0991 11.02 11.1891 10.81 11.3291 10.66C11.4891 10.49 11.7091 10.38 11.9591 10.38H20.3391C20.5891 10.38 20.8091 10.49 20.9691 10.66C21.1091 10.81 21.1991 11.01 21.1991 11.24V14.59Z" fill="#1C1C1C"/>
</g>
</g>
<defs>
<clipPath id="clip0_357_1500">
<rect width="32.3" height="32.3" fill="white"/>
</clipPath>
</defs>
</svg>
