<svg width="33" height="33" viewBox="0 0 33 33" fill="none" xmlns="http://www.w3.org/2000/svg">
<g clip-path="url(#clip0_357_1485)">
<path d="M16.15 32.3C7.25 32.3 0 25.06 0 16.15C0 7.24 7.25 0 16.15 0C25.05 0 32.3 7.24 32.3 16.15C32.3 25.06 25.05 32.3 16.15 32.3ZM16.15 1.3C7.96 1.3 1.3 7.96 1.3 16.15C1.3 24.34 7.96 31 16.15 31C24.34 31 31 24.34 31 16.15C31 7.96 24.34 1.3 16.15 1.3Z" fill="#1C1C1C"/>
<path d="M10.3 25.15H9V14.15C9 7.58 15.58 7.5 15.65 7.5V8.8C15.43 8.8 10.3 8.89 10.3 14.15V25.15Z" fill="#1C1C1C"/>
<path d="M19.3 25.15H18V14.15C18 7.58 24.58 7.5 24.65 7.5V8.8C24.43 8.8 19.3 8.89 19.3 14.15V25.15Z" fill="#1C1C1C"/>
<path d="M18.6484 14.9399H9.64844V16.2399H18.6484V14.9399Z" fill="#1C1C1C"/>
<path d="M19.1484 19H10.1484V20.3H19.1484V19Z" fill="#1C1C1C"/>
</g>
<defs>
<clipPath id="clip0_357_1485">
<rect width="32.3" height="32.3" fill="white"/>
</clipPath>
</defs>
</svg>
