<svg width="15" height="5" viewBox="0 0 15 5" fill="none" xmlns="http://www.w3.org/2000/svg">
<path d="M0.649349 4.36C0.499349 4.36 0.359349 4.31 0.239349 4.21C-0.040651 3.98 -0.0806512 3.57 0.149349 3.29C1.85935 1.21 4.43935 0.01 7.22935 0C7.23935 0 7.25935 0 7.26935 0C10.0193 0 12.5693 1.17 14.2793 3.2C14.5093 3.48 14.4693 3.89 14.1993 4.12C13.9293 4.35 13.5093 4.31 13.2793 4.04C11.8193 2.3 9.62935 1.3 7.26935 1.3H7.22935C4.82935 1.31 2.60935 2.34 1.13935 4.12C1.00935 4.28 0.829349 4.36 0.639349 4.36H0.649349Z" fill="#1C1C1C"/>
</svg>
