<svg width="11" height="10" viewBox="0 0 11 10" fill="none" xmlns="http://www.w3.org/2000/svg">
<path d="M4.53523 0.342499C4.6868 -0.114165 5.33275 -0.114165 5.48432 0.342499L6.33049 2.89197C6.39836 3.09645 6.58958 3.23446 6.80504 3.23446H9.52032C10.0073 3.23446 10.2069 3.85969 9.81012 4.14191L7.63183 5.69125C7.45285 5.81855 7.3779 6.04775 7.44708 6.2562L8.28341 8.77602C8.43569 9.23481 7.91299 9.62115 7.51907 9.34097L5.29958 7.76233C5.12608 7.63893 4.89347 7.63893 4.71997 7.76233L2.50048 9.34097C2.10656 9.62115 1.58386 9.23481 1.73614 8.77602L2.57247 6.2562C2.64165 6.04775 2.5667 5.81855 2.38772 5.69125L0.209426 4.14191C-0.187374 3.85968 0.0122966 3.23446 0.499229 3.23446H3.21451C3.42997 3.23446 3.62119 3.09645 3.68906 2.89197L4.53523 0.342499Z" fill="#FCC400"/>
</svg>
